<svg xmlns="http://www.w3.org/2000/svg" width="256" height="256" viewBox="0 0 100 100"><rect width="100" height="100" rx="20" fill="#44c0c2"></rect><path fill="#fff" d="M22.51 75.51Q18.35 75.51 15.18 74.06Q12.02 72.61 10.30 70.00Q8.58 67.39 8.58 63.96L8.58 63.96Q8.58 61.05 9.81 58.68Q11.03 56.30 13.11 54.92Q15.18 53.53 17.69 53.53L17.69 53.53Q20.00 53.53 21.59 54.69Q23.17 55.84 23.57 57.89L23.57 57.89Q20.13 57.89 18.09 59.70Q16.04 61.52 16.04 64.62L16.04 64.62Q16.04 67.46 17.76 69.17Q19.47 70.89 22.31 70.89L22.31 70.89Q25.81 70.89 28.09 68.55Q30.36 66.20 30.36 62.64L30.36 62.64Q30.36 59.54 28.65 56.77Q26.93 53.99 23.50 50.03L23.50 50.03Q19.94 45.94 18.12 43.00Q16.31 40.07 16.31 36.57L16.31 36.57Q16.31 33.14 18.22 30.40Q20.13 27.66 23.50 26.07Q26.87 24.49 31.09 24.49L31.09 24.49Q36.44 24.49 39.64 27.00Q42.84 29.51 42.84 33.73L42.84 33.73Q42.84 36.50 41.45 38.22Q40.07 39.93 37.82 39.93L37.82 39.93Q35.31 39.93 33.80 37.89L33.80 37.89Q35.05 36.96 35.78 35.45Q36.50 33.93 36.50 32.28L36.50 32.28Q36.50 30.17 35.25 28.91Q33.99 27.66 31.82 27.66L31.82 27.66Q29.18 27.66 27.49 29.54Q25.81 31.42 25.81 34.32L25.81 34.32Q25.81 36.96 27.33 39.24Q28.85 41.52 32.08 45.08L32.08 45.08Q34.72 47.92 36.34 49.97Q37.95 52.01 39.11 54.69Q40.26 57.36 40.26 60.46L40.26 60.46Q40.26 64.69 37.92 68.12Q35.58 71.55 31.52 73.53Q27.46 75.51 22.51 75.51L22.51 75.51ZM54.32 74.32L63.70 30.63L62.90 30.63Q57.03 30.63 53.76 33.57Q50.49 36.50 50.49 43.96L50.49 43.96Q50.49 46.40 50.96 47.36Q51.42 48.32 51.42 48.45L51.42 48.45Q47.85 48.45 46.11 46.96Q44.36 45.48 44.36 42.05L44.36 42.05Q44.36 37.36 46.67 33.50Q48.98 29.64 54.03 27.26Q59.08 24.89 66.86 24.89L66.86 24.89Q71.22 24.89 76.23 25.68L76.23 25.68Q80.46 26.40 83.76 26.40L83.76 26.40Q87.98 26.40 91.41 25.02L91.41 25.02Q91.28 29.31 89.24 31.35Q87.19 33.40 83.16 33.40L83.16 33.40Q81.05 33.40 78.94 33.07Q76.83 32.74 72.94 31.95L72.94 31.95L63.83 74.32L54.32 74.32Z"></path></svg>